<svg xmlns="http://www.w3.org/2000/svg" version="1.1" xmlns:xlink="http://www.w3.org/1999/xlink" width="512" height="350" x="0" y="0" viewBox="0 0 60 60" style="enable-background:new 0 0 512 512" xml:space="preserve"><g><path d="M57 19a3 3 0 0 0-3 3v3h-6.52l-2.4-3.008A3 3 0 0 0 45 16H29a3 3 0 0 0-1.648 5.5L15.08 24.846A2.989 2.989 0 0 0 13 24h-1.974l-2.234-6.037A4.537 4.537 0 0 0 0 19.537v10.878a5.008 5.008 0 0 0 4.272 4.939c5.624.836 13.555 1.318 25.834 1.525a4.957 4.957 0 0 0-.842 1.516 1.924 1.924 0 0 0 .267 1.759 2 2 0 0 0 .5.475c-.012.123-.033.244-.033.371a4 4 0 0 0 8 0c0-.127-.021-.248-.033-.371a2 2 0 0 0 .5-.475 1.924 1.924 0 0 0 .267-1.759 4.955 4.955 0 0 0-.762-1.425c1.615.011 3.287.02 5.03.025a4.961 4.961 0 0 0-.74 1.4 1.924 1.924 0 0 0 .267 1.759 2 2 0 0 0 .5.475c-.012.123-.033.244-.033.371a4 4 0 0 0 8 0c0-.127-.021-.248-.033-.371a2 2 0 0 0 .5-.475 1.924 1.924 0 0 0 .267-1.759 4.96 4.96 0 0 0-1.015-1.715 6.5 6.5 0 0 0 2.609-1.6l.67-.67V36a3 3 0 0 0 6 0V22A3 3 0 0 0 57 19ZM31.174 39a3 3 0 0 1 5.653 0ZM34 43a2 2 0 0 1-2-2h4a2 2 0 0 1-2 2Zm22-21a1 1 0 0 1 2 0v3.556A3.959 3.959 0 0 0 56 25Zm0 5a2 2 0 0 1 0 4Zm-18-5h4.519l2.4 3H39a1 1 0 0 1-1-1Zm-9-4h16a1 1 0 0 1 0 2H29a1 1 0 0 1 0-2Zm-15 9a1 1 0 0 1-1 1H8a1 1 0 0 1 0-2h5a1 1 0 0 1 1 1Zm30.174 12a3 3 0 0 1 5.653 0ZM47 43a2 2 0 0 1-2-2h4a2 2 0 0 1-2 2Zm4.916-9.33A4.513 4.513 0 0 1 48.705 35H47c-22.084 0-34.773-.485-42.439-1.625A3 3 0 0 1 2 30.415V19.537a2.538 2.538 0 0 1 4.917-.881L8.894 24H8a3 3 0 0 0 0 6h5a3 3 0 0 0 3-3 2.849 2.849 0 0 0-.033-.323L33.134 22H36v2a3 3 0 0 0 3 3h15v4.586ZM57 37a1 1 0 0 1-1-1v-3a3.959 3.959 0 0 0 2-.556V36a1 1 0 0 1-1 1Z" fill="#000000" opacity="1" data-original="#000000"></path></g></svg>