<svg xmlns="http://www.w3.org/2000/svg" version="1.1" xmlns:xlink="http://www.w3.org/1999/xlink" width="512" height="350" x="0" y="0" viewBox="0 0 512 512" style="enable-background:new 0 0 512 512" xml:space="preserve" class=""><g><path d="M504.494 398.401c-21.94 0-32.206-4.134-44.093-8.921-10.083-4.061-20.51-8.26-36.973-10.128-4.108-.457-7.836 2.493-8.304 6.611a7.506 7.506 0 0 0 6.612 8.304c14.438 1.638 23.482 5.28 33.058 9.137 12.217 4.921 24.85 10.008 49.7 10.008a7.506 7.506 0 1 0 0-15.011zM395.061 385.965c-.467-4.119-4.183-7.074-8.304-6.613-16.462 1.868-26.889 6.067-36.974 10.128-11.886 4.787-22.151 8.921-44.092 8.921-21.94 0-32.204-4.134-44.09-8.921-12.911-5.2-27.546-11.094-55.306-11.094s-42.394 5.894-55.306 11.094c-11.885 4.787-22.15 8.921-44.088 8.921-21.939 0-32.204-4.134-44.09-8.921-12.911-5.2-27.546-11.094-55.305-11.094a7.506 7.506 0 1 0 0 15.012c24.85 0 36.919 4.861 49.698 10.008 12.216 4.92 24.848 10.008 49.697 10.008 24.847 0 37.479-5.087 49.697-10.008 12.777-5.146 24.846-10.008 49.697-10.008 24.851 0 36.92 4.861 49.698 10.008 12.217 4.92 24.849 10.008 49.698 10.008s37.482-5.087 49.701-10.008c9.576-3.856 18.621-7.499 33.057-9.137a7.505 7.505 0 0 0 6.612-8.304z" fill="#000000" opacity="1" data-original="#000000" class=""></path><path d="M504.494 366.64c-23.396 0-34.811-4.597-46.897-9.464-7.595-3.059-15.345-6.178-25.816-8.223l75.417-96.762a10.298 10.298 0 0 0 1.139-10.924 10.297 10.297 0 0 0-9.316-5.818h-107.9l-39.832-82.162c-2.694-5.726-8.523-9.426-14.851-9.426H173.282l-15.179-36.352a14.483 14.483 0 0 0-13.397-8.924h-42.658c-8.006 0-14.518 6.513-14.518 14.519v30.757H73.435c-9.049 0-16.412 7.362-16.412 16.412v94.616H16.936c-3.241 0-6.339 1.547-8.287 4.138s-2.574 5.997-1.673 9.111l23.17 80.103c-6.394-1.006-13.778-1.616-22.64-1.616a7.506 7.506 0 1 0 0 15.012c23.394 0 34.809 4.597 46.894 9.464 12.88 5.188 26.198 10.551 52.502 10.551 26.303 0 39.621-5.363 52.501-10.551 12.085-4.867 23.499-9.464 46.893-9.464 23.395 0 34.809 4.597 46.894 9.464 12.88 5.188 26.199 10.551 52.502 10.551 26.305 0 39.624-5.363 52.504-10.551 12.086-4.867 23.501-9.464 46.897-9.464s34.811 4.597 46.897 9.464c12.881 5.188 26.199 10.551 52.504 10.551a7.506 7.506 0 1 0 0-15.012zM102.541 113.598h41.837l12.637 30.264h-54.474v-30.264zm302.552 233.028c-26.305 0-39.624 5.363-52.505 10.551-12.086 4.867-23.501 9.464-46.897 9.464-23.395 0-34.81-4.597-46.894-9.464-12.88-5.188-26.198-10.551-52.502-10.551-26.303 0-39.622 5.363-52.501 10.551-12.085 4.867-23.499 9.464-46.893 9.464-23.394 0-34.809-4.597-46.894-9.464-4.168-1.678-8.384-3.374-13.068-4.902l-23.826-82.374h62.443a7.506 7.506 0 1 0 0-15.012h-13.52v-94.616c0-.772.628-1.4 1.4-1.4H336.439c.54 0 1.038.316 1.306.883l36.696 75.693h-42.189a20.77 20.77 0 0 0-13.764 5.21l-14.465 12.783a5.769 5.769 0 0 1-3.823 1.447H120.48a7.506 7.506 0 1 0 0 15.012H300.2c5.075 0 9.963-1.85 13.764-5.21l14.465-12.783a5.769 5.769 0 0 1 3.823-1.447h157.264l-75.14 96.406a171.137 171.137 0 0 0-9.283-.241z" fill="#000000" opacity="1" data-original="#000000" class=""></path><path d="M127.229 174.686H101.87c-6.362 0-11.538 5.176-11.538 11.538v23.264c0 6.361 5.176 11.537 11.538 11.537h25.359c6.362 0 11.537-5.176 11.537-11.537v-23.264c0-6.362-5.175-11.538-11.537-11.538zm-3.474 31.327h-18.411v-16.316h18.411v16.316zM189.026 174.686h-25.359c-6.362 0-11.538 5.176-11.538 11.538v23.264c.001 6.361 5.176 11.537 11.538 11.537h25.359c6.362 0 11.537-5.176 11.537-11.537v-23.264c0-6.362-5.175-11.538-11.537-11.538zm-3.474 31.327h-18.411v-16.316h18.411v16.316zM250.823 174.686h-25.359c-6.362 0-11.538 5.176-11.538 11.538v23.264c0 6.361 5.176 11.537 11.538 11.537h25.359c6.362 0 11.537-5.176 11.537-11.537v-23.264c0-6.362-5.175-11.538-11.537-11.538zm-3.474 31.327h-18.411v-16.316h18.411v16.316zM334.086 207.372l-9.772-26.115a10.156 10.156 0 0 0-9.471-6.57H287.26c-6.362 0-11.538 5.176-11.538 11.538v23.264c.001 6.36 5.177 11.536 11.538 11.536h37.356a10.108 10.108 0 0 0 9.47-13.653zm-43.352-1.359v-16.316h20.711l6.105 16.316h-26.816z" fill="#000000" opacity="1" data-original="#000000" class=""></path></g></svg>