<svg xmlns="http://www.w3.org/2000/svg" version="1.1" xmlns:xlink="http://www.w3.org/1999/xlink" width="512" height="350px"  x="0" y="0" viewBox="0 0 512 512" style="enable-background:new 0 0 512 512" xml:space="preserve"><g><path d="M111.79 304.614h-.08c-4.142 0-7.46 3.358-7.46 7.5 0 4.142 3.398 7.5 7.54 7.5a7.5 7.5 0 0 0 0-15zM440.45 304.614h-.08c-4.142 0-7.46 3.358-7.46 7.5 0 4.142 3.398 7.5 7.54 7.5a7.5 7.5 0 0 0 0-15z" fill="#000000" opacity="1" data-original="#000000"></path><path d="M496.234 228.981c-23.681-13.499-76.673-20.409-157.491-20.554l-63.609-49.474a31.706 31.706 0 0 0-19.369-6.646h-15.797a7.5 7.5 0 0 0-6.893 10.454l19.568 45.658h-77.101c-4.163 0-8.234-.784-12.1-2.33l-21.573-8.629a47.42 47.42 0 0 0-27.64-2.347l-87.61 18.773c-10.778 2.31-18.601 11.987-18.601 23.01v35.652H7.5a7.5 7.5 0 0 0 0 15h.8c1.385 8.949 7.893 16.526 16.783 19.066l39.407 11.26c2.854 23.527 22.935 41.819 47.219 41.819 23.684 0 43.376-17.396 46.984-40.081h234.692c3.608 22.684 23.3 40.081 46.984 40.081 24.369 0 44.507-18.419 47.251-42.065l2.806-.936a31.507 31.507 0 0 0 21.572-29.929l.002-30.424c0-11.331-6.042-21.815-15.766-27.358zm-244.893-61.673h4.423c3.661 0 7.27 1.238 10.16 3.486l48.378 37.627h-45.341l-17.62-41.113zM111.709 344.694c-17.965 0-32.581-14.616-32.581-32.581 0-17.965 14.616-32.581 32.581-32.581 17.965 0 32.581 14.616 32.581 32.581 0 17.965-14.616 32.581-32.581 32.581zm328.661 0c-17.965 0-32.581-14.616-32.581-32.581 0-17.965 14.616-32.581 32.581-32.581 17.965 0 32.581 14.616 32.581 32.581 0 17.965-14.616 32.581-32.581 32.581zm56.629-57.926a16.522 16.522 0 0 1-10.137 15.25c-4.644-21.401-23.721-37.484-46.492-37.484-23.684 0-43.376 17.396-46.984 40.081H158.694c-3.608-22.684-23.3-40.081-46.984-40.081-22.927 0-42.117 16.301-46.593 37.921l-35.912-10.261c-2.435-.696-4.374-2.436-5.396-4.643h23.772a7.5 7.5 0 0 0 0-15H23.016v-35.652c0-3.997 2.836-7.506 6.744-8.343l87.61-18.773a32.477 32.477 0 0 1 18.926 1.607l21.574 8.63a47.379 47.379 0 0 0 17.671 3.403h160.62c99.206 0 137.766 10.11 152.645 18.592 2.687 1.532 4.825 3.805 6.246 6.489h-14.601a7.5 7.5 0 0 0 0 15H497l-.001 23.264z" fill="#000000" opacity="1" data-original="#000000"></path><path d="M376.241 272.549h-16.03a7.5 7.5 0 0 0 0 15h16.03a7.5 7.5 0 0 0 0-15zM328.143 272.549H175.838a7.5 7.5 0 0 0 0 15h152.304a7.5 7.5 0 0 0 .001-15z" fill="#000000" opacity="1" data-original="#000000"></path></g></svg>