<svg xmlns="http://www.w3.org/2000/svg" version="1.1" xmlns:xlink="http://www.w3.org/1999/xlink" width="512" height="512" x="0" y="0" viewBox="0 0 64 64" style="enable-background:new 0 0 512 512" xml:space="preserve" class="hovered-paths"><g><path d="m62.275 22.039-13.639-3.897L40.204 5.11A8.967 8.967 0 0 0 32.648 1H16.357a8.973 8.973 0 0 0-8.322 5.573L3.33 18H1v2h3c.405 0 .771-.245.925-.619l4.96-12.046A6.977 6.977 0 0 1 16.357 3h16.291a6.973 6.973 0 0 1 5.877 3.197l8.636 13.346a.997.997 0 0 0 .564.418L57 22.612V28a1 1 0 0 0 1 1h3v6h-4.059c-.5-4.493-4.317-8-8.941-8-4.962 0-9 4.038-9 9s4.038 9 9 9c4.624 0 8.441-3.507 8.941-8H62a1 1 0 0 0 1-1V23a1 1 0 0 0-.725-.961zM48 43c-3.86 0-7-3.14-7-7s3.14-7 7-7 7 3.14 7 7-3.14 7-7 7zm11-16v-3.817l2 .571V27z" fill="#000000" opacity="1" data-original="#000000" class="hovered-path"></path><path d="M48 31c-2.757 0-5 2.243-5 5s2.243 5 5 5 5-2.243 5-5-2.243-5-5-5zm0 8c-1.654 0-3-1.346-3-3s1.346-3 3-3 3 1.346 3 3-1.346 3-3 3zM42.873 19.488a1.002 1.002 0 0 0-.021-1.012L36.023 7.38A5.032 5.032 0 0 0 31.765 5H16.747a5.03 5.03 0 0 0-4.667 3.205L8.066 18.641A1.002 1.002 0 0 0 9 20h33c.362 0 .696-.196.873-.512zM13.947 8.923A3.02 3.02 0 0 1 16.747 7H24v11H10.456zM26 18V7h5.765a3.02 3.02 0 0 1 2.555 1.428L40.21 18zM24 22h4v2h-4zM8 22h4v2H8zM62 48c-2.206 0-4-1.794-4-4a1 1 0 0 0-2 0c0 2.206-1.794 4-4 4a1 1 0 0 0 0 2c2.206 0 4 1.794 4 4a1 1 0 0 0 2 0c0-2.206 1.794-4 4-4a1 1 0 0 0 0-2zm-5 2.687A6.062 6.062 0 0 0 55.313 49 6.062 6.062 0 0 0 57 47.313 6.062 6.062 0 0 0 58.687 49 6.049 6.049 0 0 0 57 50.687zM52 8c2.206 0 4 1.794 4 4a1 1 0 0 0 2 0c0-2.206 1.794-4 4-4a1 1 0 0 0 0-2c-2.206 0-4-1.794-4-4a1 1 0 0 0-2 0c0 2.206-1.794 4-4 4a1 1 0 0 0 0 2zm5-2.687A6.049 6.049 0 0 0 58.687 7 6.049 6.049 0 0 0 57 8.687 6.049 6.049 0 0 0 55.313 7 6.049 6.049 0 0 0 57 5.313zM37 42v-2a1 1 0 0 0-1-1h-3c2.206 0 4-1.794 4-4s-1.794-4-4-4c-.437 0-.863.082-1.27.219A6.01 6.01 0 0 0 26 27a5.98 5.98 0 0 0-1.675.242A5.962 5.962 0 0 0 19 24a6.002 6.002 0 0 0-5.325 3.247A5.95 5.95 0 0 0 12 27a6.012 6.012 0 0 0-5.732 4.225A3.952 3.952 0 0 0 5 31c-2.206 0-4 1.794-4 4s1.794 4 4 4H2a1 1 0 0 0-1 1v2c0 5.065 2.918 9.451 7.154 11.596l.85 8.504c.052.511.482.9.996.9h18a1 1 0 0 0 .995-.9l.85-8.504C34.082 51.451 37 47.065 37 42zm-2-1v1c0 3.814-1.953 7.179-4.91 9.153L30.905 43H32a1 1 0 0 0 1-1v-1zM24 51H14a1 1 0 0 0-1 1v.949a10.89 10.89 0 0 1-2.97-.702L9.105 43h19.79l-.925 9.247a10.89 10.89 0 0 1-2.97.702V52a1 1 0 0 0-1-1zm-1 2v2h-8v-2zM7 39h24v2H7zm-4-4c0-1.103.897-2 2-2s2 .897 2 2h2c0-.974-.364-1.856-.944-2.55C8.327 30.506 9.983 29 12 29c.367 0 .721.063 1.066.159A5.988 5.988 0 0 0 13 30c0 1.31.415 2.555 1.2 3.601l1.6-1.201A3.959 3.959 0 0 1 15 30c0-2.206 1.794-4 4-4 1.507 0 2.841.829 3.525 2.118A5.99 5.99 0 0 0 20 33h2c0-2.206 1.794-4 4-4a4.004 4.004 0 0 1 3.667 5.6l1.833.801a5.943 5.943 0 0 0 .485-2.122c.306-.18.655-.279 1.015-.279 1.103 0 2 .897 2 2s-.897 2-2 2H5c-1.103 0-2-.897-2-2zm0 7v-1h2v1a1 1 0 0 0 1 1h1.095l.815 8.153C4.953 49.179 3 45.814 3 42zm24.095 19h-16.19l-.656-6.557a12.94 12.94 0 0 0 2.751.506V56a1 1 0 0 0 1 1h10a1 1 0 0 0 1-1v-1.051c.948-.073 1.87-.24 2.751-.506zM60 57h-6c-.551 0-1-.449-1-1 0-1.654-1.346-3-3-3H36c-1.654 0-3 1.346-3 3s1.346 3 3 3h6c.551 0 1 .449 1 1 0 1.654 1.346 3 3 3h14c1.654 0 3-1.346 3-3s-1.346-3-3-3zm0 4H46c-.551 0-1-.449-1-1 0-1.654-1.346-3-3-3h-6c-.551 0-1-.449-1-1s.449-1 1-1h14c.551 0 1 .449 1 1 0 1.654 1.346 3 3 3h6c.551 0 1 .449 1 1s-.449 1-1 1z" fill="#000000" opacity="1" data-original="#000000" class="hovered-path"></path></g></svg>