<svg xmlns="http://www.w3.org/2000/svg" version="1.1" xmlns:xlink="http://www.w3.org/1999/xlink" width="512" height="512" x="0" y="0" viewBox="0 0 524.978 215.085" style="enable-background:new 0 0 512 512" xml:space="preserve" class=""><g><path d="M520.297 161.763h-3.057l1.18-21.851a22.184 22.184 0 0 0-3.42-13.08l-13.121-20.684a22.184 22.184 0 0 0-11.774-9.18L427.44 76.263 383.187 58.81a12.905 12.905 0 0 1-5.994 2.94l-8.163 1.605 3.318 1.31 12.264 16.182-37.347-2.626 4.67 17.674a17.544 17.544 0 0 1-.12 13.654L333.68 151.21l13.036 28.2h37.043v1.91h11.308v-5.655c0-24.943 20.293-45.235 45.235-45.235s45.234 20.292 45.234 45.235v5.654H496.845v-1.91h23.452a4.695 4.695 0 0 0 4.681-4.68v-8.285a4.695 4.695 0 0 0-4.681-4.681zM257.007 148.754c.12-4.16 1.723-8.15 4.514-11.236l27.182-30.048-7.46-28.23-5.514 8.233a12.944 12.944 0 0 1-7.98 5.455l-27.174 6.04 2.624 5.42a2.855 2.855 0 0 1-1.765 3.984l-28.21 8.297a2.856 2.856 0 0 1-3.335-1.411l-8.66-16.49a2.855 2.855 0 0 1 1.85-4.102l5.212-1.27c-.048-.18-.104-.356-.144-.538-1.555-6.999 2.873-13.957 9.87-15.511l28.08-6.241-13.222-.93-7.204-46.974c1.453-.033 2.908-.07 4.352-.07 10.405 0 20.736.838 30.947 2.485a26.53 26.53 0 0 1 .598-9.443 203.364 203.364 0 0 0-44.494-2.053l-135.11 8.625a16.594 16.594 0 0 0-9.686 3.913L24.997 66.816a16.595 16.595 0 0 0-5.802 13.942l1.505 19.247a16.594 16.594 0 0 1-5.178 13.384l-3.627 3.41a16.594 16.594 0 0 0-5.204 12.977l1.712 31.987H4.681A4.695 4.695 0 0 0 0 166.444v8.284a4.695 4.695 0 0 0 4.681 4.681h23.18v1.91H39.17v-5.654c0-24.943 20.292-45.235 45.234-45.235s45.235 20.292 45.235 45.235v5.654h11.308v-1.91h115.175zm-143.675-85.44 26.087 3.666-.867 6.162-26.086-3.666zm79.121 36.835a.927.927 0 0 1-.598 1.16.923.923 0 0 1-1.16-.592c-.036-.11-.86-2.714.43-5.115.833-1.555 2.328-2.64 4.441-3.227a.924.924 0 1 1 .495 1.781c-1.602.443-2.712 1.22-3.3 2.306-.92 1.696-.314 3.668-.308 3.687zm2.042-9.81c-2.669.63-4.562 1.853-5.632 3.632-1.634 2.717-.828 5.904-.82 5.936a.926.926 0 0 1-.658 1.128.923.923 0 0 1-1.128-.654c-.043-.16-1.02-3.945 1.01-7.342 1.334-2.233 3.623-3.746 6.802-4.499a.924.924 0 0 1 .426 1.8zm58.594 24.29c1.847-2.576 1.3-5.817 1.295-5.85a.926.926 0 0 1 .746-1.071.923.923 0 0 1 1.072.742c.03.163.7 4.014-1.597 7.238-1.51 2.118-3.912 3.442-7.141 3.937a.924.924 0 0 1-.28-1.828c2.71-.413 4.696-1.48 5.905-3.167zm-7.16-.762c1.633-.313 2.802-.998 3.476-2.034 1.053-1.616.607-3.63.602-3.65a.927.927 0 0 1 .69-1.108.923.923 0 0 1 1.11.683c.026.112.637 2.775-.84 5.065-.957 1.482-2.534 2.444-4.688 2.859a.924.924 0 0 1-.35-1.815zm-33.944 5.775 28.21-8.297c.214-.063.414-.149.599-.253a2.856 2.856 0 0 1-1.974 3.39l-28.211 8.297a2.856 2.856 0 0 1-3.334-1.411l-8.661-16.49c-.738-1.404-.174-3.073 1.128-3.807.054.227.133.451.248.67l8.661 16.49a2.856 2.856 0 0 0 3.334 1.41zm-3.43-51.176-96.41-14.858-2.885-23.161 105.327-6.724 1.607 45.28zM78.379 33.842a7.212 7.212 0 0 1 4.184-1.69l18.936-1.21.61 21.12-32.59-5.023-3.402-2.783zM298.615 158.768a17.505 17.505 0 0 1-1.587-8.328l-5.222 5.773-.669 23.196h17.02z" fill="#000000" opacity="1" data-original="#000000" class=""></path><path d="M123.825 175.665c0-1.232-.063-2.45-.172-3.65-1.844-20.06-18.705-35.77-39.244-35.77-20.543 0-37.406 15.71-39.248 35.77a39.404 39.404 0 0 0-.177 3.65c0 21.77 17.649 39.42 39.425 39.42 21.77 0 39.416-17.65 39.416-39.42zM84.41 201.257c-14.114 0-25.596-11.48-25.596-25.592 0-.747.037-1.526.117-2.381 1.215-13.235 12.168-23.212 25.479-23.212 13.306 0 24.258 9.978 25.475 23.208.075.835.113 1.619.113 2.385 0 14.111-11.478 25.592-25.588 25.592z" fill="#000000" opacity="1" data-original="#000000" class=""></path><path d="M96.17 175.665c0-.342-.02-.714-.056-1.119-.558-6.069-5.59-10.646-11.705-10.646-6.117 0-11.152 4.578-11.71 10.666-.04.419-.059.778-.059 1.1 0 6.486 5.28 11.763 11.769 11.763 6.484 0 11.76-5.277 11.76-11.764zM479.721 175.665c0-1.232-.062-2.45-.172-3.65-1.844-20.06-18.705-35.77-39.244-35.77-20.543 0-37.406 15.71-39.248 35.77a39.44 39.44 0 0 0-.176 3.65c0 21.77 17.648 39.42 39.424 39.42 21.77 0 39.416-17.65 39.416-39.42zm-39.416 25.592c-14.114 0-25.596-11.48-25.596-25.592 0-.747.038-1.526.117-2.381 1.216-13.235 12.169-23.212 25.48-23.212 13.306 0 24.257 9.978 25.474 23.208.075.835.113 1.619.113 2.385 0 14.111-11.478 25.592-25.588 25.592z" fill="#000000" opacity="1" data-original="#000000" class=""></path><path d="M452.065 175.665c0-.342-.018-.714-.055-1.119-.558-6.069-5.59-10.646-11.705-10.646-6.117 0-11.151 4.578-11.71 10.666-.04.419-.058.778-.058 1.1 0 6.486 5.28 11.763 11.768 11.763 6.485 0 11.76-5.277 11.76-11.764zM265.969 29.87c-1.963 1.267-2.744 3.636-1.815 5.509l7.743 8.366c1.051.988 2.018 1.306 2.9 1.306.167 0 .328-.02.489-.041l2.072-3.093-.331.13c-.237.086-.467.177-.691.267-1.294.515-1.829.728-2.81-.19l-6.523-6.993 6.816-4.33-.644-1.013-7.006 4.45-.012-.013c-.304-.807.131-1.825 1.06-2.424l9.88-6.38c.663-.427 1.47-.568 2.157-.38.496.136.879.433 1.079.836l4.69 9.462c.336-.09.676-.17 1.02-.229l6.103-1.38 16.89-5.482a22.418 22.418 0 0 0-3.175-18.426L282.23 24.599a3.933 3.933 0 0 0-2.365-1.777c-.11-.03-.224-.05-.337-.072l24.478-15.305C297.309 0 286.193-2.291 276.898 2.543 266.87 7.76 262.42 19.471 266.012 29.841z" fill="#000000" opacity="1" data-original="#000000" class=""></path><path d="m275.433 29.776 2.362-1.5-.643-1.013-2.362 1.5.322.507zM372.561 38.2a10.932 10.932 0 0 1 7.465 1.185V31.21h-3.191v-8.974a2.481 2.481 0 0 0-2.474-2.474 2.481 2.481 0 0 0-2.474 2.474v8.975h-3.19v7.75zM331.28 30.913a7.963 7.963 0 0 0-5.373-1.692c-.025-.01-.049-.024-.074-.034l-.25.056a8.036 8.036 0 0 0-1.99.45l-36.97 8.361a7.964 7.964 0 0 0-5.37 3.437l-21.188 31.632-40.963 9.104a8 8 0 0 0 3.471 15.62l44.09-9.8a8 8 0 0 0 4.912-3.357l11.675-17.43 10.98 41.553-29 32.06a12.504 12.504 0 0 0-3.225 8.025l-1.5 52c-.2 6.9 5.234 12.656 12.134 12.855.123.003.246.005.368.005 6.736 0 12.292-5.361 12.488-12.14l1.367-47.392 24.647-27.247-8.47 19.456a12.498 12.498 0 0 0 .114 10.234l23.5 50.834c2.113 4.569 6.633 7.258 11.355 7.258 1.756 0 3.539-.371 5.237-1.156 6.267-2.898 8.998-10.325 6.102-16.592L328.2 151.271l19.031-43.719c1.452-3.334 1.323-6.95-.038-10.033l-11.252-42.582 7.113 5.594a8.001 8.001 0 0 0 6.49 1.562l26.684-5.25a8 8 0 0 0-3.087-15.7l-23.082 4.541z" fill="#000000" opacity="1" data-original="#000000" class=""></path></g></svg>