<svg xmlns="http://www.w3.org/2000/svg" version="1.1" xmlns:xlink="http://www.w3.org/1999/xlink" width="512" height="512" x="0" y="0" viewBox="0 0 64 64" style="enable-background:new 0 0 512 512" xml:space="preserve" class="hovered-paths"><g><path d="M63 46c-4.411 0-8 3.589-8 8v5c0 1.654-1.346 3-3 3s-3-1.346-3-3v-1.22l3.242-.81a.998.998 0 0 0 .714-1.264l-3.86-12.546 1.736-2.605A1 1 0 0 0 50.6 39.2L47.666 37H51a1 1 0 0 0 1-1v-2h2v3a1 1 0 1 0 2 0v-8a1 1 0 1 0-2 0v3h-2v-2a1 1 0 0 0-1-1h-4.184A2.995 2.995 0 0 0 44 27H32.414l2.04-2.04 9.646-.965c.23-.023.444-.125.607-.288L50 18.414l.293.293a.997.997 0 0 0 1.414 0l3-3a1 1 0 0 0 0-1.414l-14-14a1 1 0 0 0-1.414 0l-3 3a1 1 0 0 0 0 1.414l.293.293-5.293 5.293a1.003 1.003 0 0 0-.288.607l-.965 9.646-2.747 2.747L23.586 27H18a1 1 0 0 0-1 1v1h-3a1 1 0 0 0-1 1v1.18l-4.196.84A1 1 0 0 0 8 33v4a1 1 0 0 0 .804.98l4.196.84V40a1 1 0 0 0 1 1h3v1a1 1 0 0 0 1 1h5.691c-.557 3.27-2.083 8.191-6.273 11.187a1 1 0 0 0 .34 1.783c.067.017.448.104 1.054.104 2.35 0 8.096-1.315 12.257-13.074h2.063l-.964 1.445a1.003 1.003 0 0 0 .46 1.484l4.478 1.79 1.908 11.445a.999.999 0 0 0 1.228.806L47 58.28V59c0 2.757 2.243 5 5 5s5-2.243 5-5v-5c0-3.309 2.691-6 6-6a1 1 0 1 0 0-2zM50 35h-3v-4h3zM40 2.414 52.586 15 51 16.586 38.414 4zm-7.04 9.041L38 6.415 48.586 17l-5.041 5.04-9.173.918-2.33-2.33.918-9.173zM31 22.415 32.586 24 31 25.586 29.414 24zm-3 3L29.586 27h-3.172zM10 36.18v-2.362l3-.6v3.561zM15 39v-8h2v8zm4-10h25a1 1 0 0 1 1 1v6.531L39.638 41H19zm2.125 24.51c2.98-3.38 4.136-7.622 4.59-10.51h3.229c-2.572 6.904-5.631 9.535-7.819 10.51zm17.861-6.674a1.002 1.002 0 0 0-.615-.765l-3.855-1.542L35.536 43H40c.234 0 .46-.082.64-.231l5.393-4.494 2.61 1.957-1.475 2.213a1 1 0 0 0-.124.849l.27.88-2.63.878a1 1 0 1 0 .632 1.896l2.587-.862.643 2.088-2.362.787a1 1 0 1 0 .632 1.896l2.318-.772 1.6 5.201-9.925 2.482-1.823-10.932zM5 34H1a1 1 0 1 0 0 2h4a1 1 0 1 0 0-2zM4.445 30.832a1 1 0 1 0 1.11-1.664l-3-2a1 1 0 1 0-1.11 1.664zM4.445 39.168l-3 2a1 1 0 1 0 1.11 1.664l3-2a1 1 0 1 0-1.11-1.664z" fill="#000000" opacity="1" data-original="#000000" class="hovered-path"></path><path d="M35 33h4a1 1 0 1 0 0-2h-4a1 1 0 1 0 0 2zM40 36a1 1 0 0 0-1-1h-4a1 1 0 1 0 0 2h4a1 1 0 0 0 1-1z" fill="#000000" opacity="1" data-original="#000000" class="hovered-path"></path></g></svg>