<svg xmlns="http://www.w3.org/2000/svg" version="1.1" xmlns:xlink="http://www.w3.org/1999/xlink" width="512" height="512" x="0" y="0" viewBox="0 0 64 64" style="enable-background:new 0 0 512 512" xml:space="preserve" class=""><g><path d="M19.001 44c-.081 0-.162-.01-.244-.03l-4-1a1 1 0 0 1 .485-1.94l4 1a1 1 0 0 1-.241 1.97zM44.999 44a1 1 0 0 1-.241-1.97l4-1a1 1 0 1 1 .485 1.94l-4 1a.976.976 0 0 1-.244.03zM36 44h-9a1 1 0 1 1 0-2h9a1 1 0 1 1 0 2zM49 48h-3a1 1 0 1 1 0-2h3a1 1 0 1 1 0 2zM18 48h-3a1 1 0 1 1 0-2h3a1 1 0 1 1 0 2z" fill="#000000" opacity="1" data-original="#000000" class=""></path><path d="m56.243 31.03-4-1a1 1 0 0 0-1.213.728L50.219 34H14.326l2.286-8h27.389a1 1 0 1 0 0-2h-26.8c.401-1.082 1.659-2 2.799-2h24c1.196 0 2.534 1.009 2.864 2.163l1.615 5.567a1 1 0 1 0 1.921-.556l-1.614-5.563c-.579-2.024-2.681-3.61-4.786-3.61H20c-2.105 0-4.207 1.586-4.786 3.61l-2.15 7.525-.094-.377a1 1 0 0 0-1.213-.728l-4 1a1 1 0 0 0-.757.97v3a1 1 0 0 0 1 1h2.519c-.788.996-1.519 2.357-1.519 4v16c0 1.654 1.346 3 3 3h6c1.654 0 3-1.346 3-3v-1a1 1 0 1 0-2 0v1c0 .552-.449 1-1 1h-6c-.551 0-1-.448-1-1v-3h42v3c0 .552-.449 1-1 1h-6c-.551 0-1-.448-1-1v-1a1 1 0 1 0-2 0v1c0 1.654 1.346 3 3 3h6c1.654 0 3-1.346 3-3v-16c0-1.643-.731-3.004-1.519-4H56a1 1 0 0 0 1-1v-3c0-.459-.313-.858-.757-.97zM9 34v-1.219l2.272-.568.447 1.787zm44 17H41.677l-1.005-2.514C40.115 47.091 38.502 46 37.001 46h-7a1 1 0 1 0 0 2h7c.692 0 1.557.586 1.814 1.229L39.524 51H24.478l.709-1.771c.257-.643 1.122-1.229 1.814-1.229a1 1 0 1 0 0-2c-1.501 0-3.114 1.092-3.671 2.486L22.324 51H11V40c0-1.982 1.706-3.509 2.33-4h37.34c.626.493 2.33 2.019 2.33 4zm2-17h-2.719l.447-1.787 2.272.568zM7 25a1 1 0 0 1-1-1c0-2.757-2.243-5-5-5a1 1 0 1 1 0-2c2.757 0 5-2.243 5-5a1 1 0 1 1 2 0c0 2.757 2.243 5 5 5a1 1 0 1 1 0 2c-2.757 0-5 2.243-5 5a1 1 0 0 1-1 1zm-2.397-7A7.057 7.057 0 0 1 7 20.397 7.057 7.057 0 0 1 9.397 18 7.057 7.057 0 0 1 7 15.603 7.057 7.057 0 0 1 4.603 18zM59 30a1 1 0 0 1-1-1c0-1.654-1.346-3-3-3a1 1 0 1 1 0-2c1.654 0 3-1.346 3-3a1 1 0 1 1 2 0c0 1.654 1.346 3 3 3a1 1 0 1 1 0 2c-1.654 0-3 1.346-3 3a1 1 0 0 1-1 1zm-1.003-5c.379.285.718.623 1.003 1.003.285-.38.624-.718 1.003-1.003A5.043 5.043 0 0 1 59 23.997c-.285.38-.624.718-1.003 1.003zM19 15a1 1 0 0 1-1-1c0-1.654-1.346-3-3-3a1 1 0 1 1 0-2c1.654 0 3-1.346 3-3a1 1 0 1 1 2 0c0 1.654 1.346 3 3 3a1 1 0 1 1 0 2c-1.654 0-3 1.346-3 3a1 1 0 0 1-1 1zm-1.003-5c.379.285.718.623 1.003 1.003.285-.38.624-.718 1.003-1.003A5.043 5.043 0 0 1 19 8.997c-.285.38-.624.718-1.003 1.003z" fill="#000000" opacity="1" data-original="#000000" class=""></path></g></svg>