<svg xmlns="http://www.w3.org/2000/svg" version="1.1" xmlns:xlink="http://www.w3.org/1999/xlink" width="512" height="512" x="0" y="0" viewBox="0 0 512 512" style="enable-background:new 0 0 512 512" xml:space="preserve" class="hovered-paths"><g><path d="M30.72 344.747V409.6c0 15.701 12.971 28.672 28.672 28.672h16.384c4.096 23.211 24.576 40.96 49.152 40.96s45.056-17.749 49.152-40.96h40.96l3.413 34.816c.683 3.413 3.413 6.144 6.827 6.144h75.776c3.413 0 6.144-2.731 6.827-6.144l3.413-34.816h25.941c4.096 23.211 24.576 40.96 49.152 40.96s45.056-17.749 49.152-40.96h16.384c15.019 0 27.307-10.923 28.672-25.941 1.365-15.701.683-32.768-2.731-53.248-.683-5.461-3.413-10.24-7.509-12.971-22.528-18.432-51.883-27.307-91.477-27.989-60.757-55.979-177.493-83.968-258.731-38.229l-10.24-5.461-10.923-23.211c-1.365-2.048-3.413-4.096-6.144-4.096s-4.779 1.365-6.144 4.096L75.093 273.75l-22.528 10.923c-2.048 1.365-4.096 3.413-4.096 6.144s1.365 4.779 4.096 6.144l21.163 10.24-25.941 11.605c-10.24 4.778-17.067 15.018-17.067 25.941zm94.208 120.832c-19.797 0-36.181-16.384-36.181-36.181s16.384-36.181 36.181-36.181 36.181 16.384 36.181 36.181c.683 19.797-15.701 36.181-36.181 36.181zm169.984 0h-63.488l-8.875-88.064h81.92zm91.477 0c-19.797 0-36.181-16.384-36.181-36.181s16.384-36.181 36.181-36.181 36.181 16.384 36.181 36.181c.683 19.797-15.701 36.181-36.181 36.181zM71.68 290.816l11.605-5.461c1.365-.683 2.731-2.048 3.413-3.413l6.144-12.971 6.144 12.288c.683 1.365 2.048 2.731 3.413 3.413l12.971 6.144-13.653 6.827c-1.365.683-2.731 2.048-3.413 3.413l-5.461 10.923-2.048-4.779-3.413-8.192c-.683-1.365-2.048-2.731-3.413-3.413zm-18.432 40.277 27.307-11.605 5.461 11.605c1.365 2.048 3.413 4.096 6.144 4.096s4.779-1.365 6.144-4.096l10.923-21.845 23.893-11.605c2.048-1.365 4.096-3.413 4.096-6.144 0-2.048-.683-3.413-2.048-4.779 75.776-36.864 183.637-8.875 236.885 42.325 1.365 1.365 2.731 2.048 4.779 2.048 37.547 0 65.536 8.192 85.333 24.576 1.365 1.365 2.048 2.731 2.731 4.779 2.731 19.115 3.413 35.499 2.048 49.835-.683 7.509-6.827 13.653-15.019 13.653h-15.701c-2.048-25.259-23.893-45.739-49.835-45.739-25.941 0-47.787 19.797-49.835 45.739h-23.211l5.461-52.565c0-2.048-.683-4.096-2.048-5.461s-3.413-2.048-4.779-2.048H215.04c-2.048 0-4.096.683-4.779 2.048-1.365 1.365-2.048 3.413-2.048 5.461l5.461 52.565h-38.912c-2.048-25.259-23.893-45.739-49.835-45.739s-47.787 19.797-49.835 45.739h-15.7c-8.192 0-15.019-6.827-15.019-15.019v-64.853c0-4.779 3.414-10.24 8.875-12.971z" fill="#000000" opacity="1" data-original="#000000" class="hovered-path"></path><path d="M109.909 343.381h96.939c4.096 0 6.827-2.731 6.827-6.827V296.96c0-2.048-.683-4.096-2.048-4.779-1.365-1.365-3.413-2.048-5.461-2.048-49.152 4.779-84.651 30.037-96.256 38.229-1.365 1.365-2.731 2.048-2.731 2.048-2.731 1.365-4.779 4.779-4.096 7.509s3.413 5.462 6.826 5.462zm90.112-38.912v25.259h-67.584c15.019-9.557 38.23-21.163 67.584-25.259zM240.981 343.381h96.939c2.731 0 5.461-2.048 6.827-4.779.683-2.731 0-6.144-2.731-7.509-32.768-23.211-66.219-37.547-100.352-40.96-2.048 0-4.096.683-5.461 2.048s-2.048 3.413-2.048 4.779v39.595c0 3.413 3.413 6.826 6.826 6.826zm6.827-38.912c22.528 3.413 45.056 11.605 67.584 25.259h-67.584zM263.509 434.859c12.971 0 23.211-10.24 23.211-23.211v-16.384c0-4.096-2.731-6.827-6.827-6.827s-6.827 2.731-6.827 6.827v16.384c0 5.461-4.096 9.557-9.557 9.557s-9.557-4.096-9.557-9.557v-16.384c0-4.096-2.731-6.827-6.827-6.827s-6.827 2.731-6.827 6.827v16.384c.001 12.971 10.241 23.211 23.211 23.211zM176.811 138.581c-1.365-2.048-3.413-4.096-6.144-4.096s-4.779 1.365-6.144 4.096l-15.701 31.403-30.72 15.019c-2.048 1.365-4.096 3.413-4.096 6.144s1.365 4.779 4.096 6.144l30.72 15.019 15.019 31.403c1.365 2.048 3.413 4.096 6.144 4.096s4.779-1.365 6.144-4.096l15.019-29.355 32.768-15.701c2.048-1.365 4.096-3.413 4.096-6.144s-1.365-4.779-4.096-6.144l-31.403-15.701zm5.461 64.171c-1.365.683-2.731 2.048-3.413 3.413l-9.557 19.115-9.557-21.163c-.683-1.365-2.048-2.731-3.413-3.413l-19.115-9.557 19.797-9.557c1.365-.683 2.731-2.048 3.413-3.413l10.24-21.163 9.557 20.48c.683 1.365 2.048 2.731 3.413 3.413L204.8 191.83zM477.867 200.021l-33.451-54.613-4.779-8.192c-3.413-5.461-7.509-9.557-13.653-12.288l-32.768-15.701-12.288-20.48c-4.779-7.509-12.971-11.605-21.163-10.923l-.683-1.365 14.336-8.875c3.413-2.048 4.096-6.144 2.048-9.557l-5.461-8.875c-.683-1.365-2.048-2.731-3.413-2.731l-39.595-12.288c-6.827-2.048-14.336-1.365-20.48 2.048L264.875 61.44c-3.413 2.048-4.096 6.144-2.048 9.557l16.384 26.624c2.048 3.413 6.144 4.096 9.557 2.048l13.653-8.192c-2.048 12.288-6.827 27.307-15.019 34.816-2.731 2.731-3.413 6.827-.683 9.557 1.365 1.365 3.413 2.048 5.461 2.048 1.365 0 3.413-.683 4.779-2.048 12.288-10.923 17.749-30.037 19.797-43.691l8.875 8.875c0 .683-.683 1.365-.683 2.731-1.365 6.144-.683 12.288 2.731 17.067l12.288 19.797-7.509 38.912c-1.365 7.509 0 15.701 4.096 21.845l37.547 61.44c3.413 5.461 8.192 8.875 14.336 10.24 2.048.683 3.413.683 5.461.683 4.096 0 8.192-1.365 11.605-3.413l67.584-40.96c8.193-4.779 11.606-19.115 4.78-29.355zM305.835 72.363 286.72 83.968l-8.875-15.019 36.181-20.48c2.731-1.365 6.144-2.048 8.875-1.365l37.547 12.288.683.683-14.336 8.875c-1.365.683-2.731 2.731-3.413 4.096-.683 2.048 0 3.413.683 5.461l2.731 4.779-12.971 8.192c-.683 0-.683 0-1.365.683l-17.749-17.749a8.498 8.498 0 0 0-4.16-2.328 8.488 8.488 0 0 0-4.716.279zm38.229 111.274 8.192-41.643c0-1.365 0-3.413-.683-4.779L337.92 115.37c-1.365-2.048-1.365-4.779-1.365-6.827s2.048-4.096 4.096-5.461l16.384-9.557c1.365-.683 2.731-1.365 4.779-1.365h2.048c2.048.683 4.096 2.048 5.461 4.096l13.653 21.845c.683 1.365 1.365 2.048 2.731 2.731l34.816 16.384c3.413 1.365 5.461 4.096 7.509 6.827l2.731 4.096c-8.192 8.875-19.115 13.653-32.768 18.432-15.019 5.461-33.451 12.288-51.883 28.672-2.048-3.414-2.731-7.51-2.048-11.606zm119.467 35.499-67.584 40.96c-2.048 1.365-4.779 1.365-6.827 1.365-2.048-.683-4.096-2.048-5.461-4.096l-30.72-49.835c17.067-15.701 34.133-22.528 49.152-27.989 12.971-4.779 25.259-9.557 35.499-19.115l28.672 47.104c2.73 3.414 1.365 9.558-2.731 11.606zM215.723 82.603l-15.701 4.096c-3.413.683-6.144 4.779-4.779 8.192.683 3.413 3.413 5.461 6.827 5.461h1.365l15.701-4.096c3.413-.683 6.144-4.779 4.779-8.192-.683-4.096-4.096-6.144-8.192-5.461zM233.472 141.312l10.923-12.288c2.731-2.731 2.048-6.827-.683-9.557s-6.827-2.048-9.557.683l-10.923 12.288c-2.731 2.731-2.048 6.827.683 9.557 1.365 1.365 2.731 1.365 4.779 1.365 1.365 0 3.413-.683 4.778-2.048zM209.579 118.784c1.365 2.048 3.413 3.413 6.144 3.413 1.365 0 2.731 0 3.413-.683l12.971-8.192c3.413-2.048 4.096-6.144 2.048-9.557s-6.144-4.096-9.557-2.048l-12.971 7.509c-3.414 2.049-4.096 6.145-2.048 9.558zM260.096 87.381c-1.365-2.048-3.413-2.731-5.461-3.413.683-1.365.683-2.731.683-4.096-.683-3.413-4.779-6.144-8.192-4.779l-14.336 3.413c-3.413.683-6.144 4.779-4.779 8.192.683 3.413 3.413 5.461 6.827 5.461h1.365l5.461-1.365-2.731 1.365c-3.413 2.048-4.096 6.144-2.048 9.557 1.365 2.048 3.413 3.413 6.144 3.413 1.365 0 2.731 0 3.413-.683l2.731-2.048-4.096 4.096c-2.731 2.731-2.048 6.827.683 9.557 1.365 1.365 2.731 1.365 4.779 1.365s4.096-.683 5.461-2.048l9.557-10.923c2.731-2.731 2.048-6.827-.683-9.557-1.365-.683-2.731-1.365-4.096-1.365.683-2.046.683-4.094-.682-6.142z" fill="#000000" opacity="1" data-original="#000000" class="hovered-path"></path></g></svg>