<svg xmlns="http://www.w3.org/2000/svg" version="1.1" xmlns:xlink="http://www.w3.org/1999/xlink" width="512" height="512" x="0" y="0" viewBox="0 0 64 64" style="enable-background:new 0 0 512 512" xml:space="preserve" class=""><g><path d="M59 19.1v-2.242A4 4 0 0 0 62 13V5a4 4 0 0 0-4-4h-4a4 4 0 0 0-4 4v8a4 4 0 0 0 3 3.858V19.1a5.009 5.009 0 0 0-4 4.9v4.649l-1.282 1.6A12.431 12.431 0 0 0 45 38v12h-4.9l-11.6-2.3a4.752 4.752 0 0 0-5.25 6.2l1.85 5.57A5.152 5.152 0 0 0 30 63h24a6.428 6.428 0 0 0 6.38-5.9L63 26v-2a5.009 5.009 0 0 0-4-4.9ZM57 17v2h-2v-2Zm-5-4V5a2 2 0 0 1 2-2h4a2 2 0 0 1 2 2v8a2 2 0 0 1-2 2h-4a2 2 0 0 1-2-2Zm2 8h4a3 3 0 0 1 3 3v1h-3.76A11.156 11.156 0 0 0 51 26.889V24a3 3 0 0 1 3-3ZM25.964 50.3a2.758 2.758 0 0 1 1.781-.664 2.661 2.661 0 0 1 .4.031l11.662 2.315A.967.967 0 0 0 40 52h13a5.006 5.006 0 0 1 5 5H37.414l-3.707-3.707A1 1 0 0 0 33 53h-7.923a2.686 2.686 0 0 1 .887-2.7ZM54 61H30a3.159 3.159 0 0 1-3-2.163L25.721 55h6.865l3.707 3.707A1 1 0 0 0 37 59h20.662A4.4 4.4 0 0 1 54 61Zm4.721-8.021A6.992 6.992 0 0 0 53 50h-6V38a10.43 10.43 0 0 1 2.279-6.5l1.459-1.823A9.181 9.181 0 0 1 57.242 27h3.67ZM4 50h2v4H4zM7 50h2v4H7z" fill="#000000" opacity="1" data-original="#000000"></path><path d="M34.316 40.107 33.949 39a1 1 0 0 0-1.9 0l-.366 1.1A1.775 1.775 0 0 1 30 41.32a1 1 0 1 0 0 2 1.773 1.773 0 0 1 1.684 1.213l.367 1.1a1 1 0 0 0 1.9 0l.366-1.1A1.775 1.775 0 0 1 36 43.32a1 1 0 0 0 0-2 1.773 1.773 0 0 1-1.684-1.213ZM33 42.8a3.722 3.722 0 0 0-.439-.482 3.722 3.722 0 0 0 .439-.48 3.722 3.722 0 0 0 .439.482 3.722 3.722 0 0 0-.439.48ZM13 13a2.841 2.841 0 0 1 2.759 2.154l.272 1.089a1 1 0 0 0 1.94 0l.272-1.089A2.841 2.841 0 0 1 21 13a1 1 0 1 0 0-2 2.841 2.841 0 0 1-2.759-2.154l-.271-1.089a1 1 0 0 0-1.94 0l-.272 1.089A2.841 2.841 0 0 1 13 11a1 1 0 0 0 0 2Zm4-2.111A4.848 4.848 0 0 0 18.051 12 4.848 4.848 0 0 0 17 13.111 4.848 4.848 0 0 0 15.949 12 4.848 4.848 0 0 0 17 10.889Z" fill="#000000" opacity="1" data-original="#000000"></path><path d="M2 63h16a3 3 0 0 0 3-3v-3a10.013 10.013 0 0 0-9-9.949V44a1 1 0 0 0-1-1H9V25a1 1 0 0 1 2 0v13a3 3 0 0 0 6 0v-3.343a12.563 12.563 0 0 1 1.78-6.463l.513.513a1 1 0 0 0 1.414 0l10.5-10.5.175.228a1 1 0 0 0 .727.389h.066a1 1 0 0 0 .707-.293l1.618-1.617 1.793 1.793a1 1 0 0 0 1.414 0l6-6a1 1 0 0 0 0-1.414l-1.835-1.835a.987.987 0 0 0-.165-1.165l-4-4a1.029 1.029 0 0 0-1.414 0L33.5 7.086l-1.793-1.793a1 1 0 0 0-1.414 0l-6.5 6.5a1 1 0 0 0 0 1.414 2.54 2.54 0 0 1 0 3.586l-7.5 7.5a1 1 0 0 0 0 1.414l1.036 1.036A14.552 14.552 0 0 0 15 34.657V38a1 1 0 0 1-2 0V25a3 3 0 0 0-6 0v18H5a1 1 0 0 0-1 1v3.142A4 4 0 0 0 1 51v11a1 1 0 0 0 1 1Zm35-46.414L35.914 15.5l4.586-4.586L41.586 12Zm0-10.172L39.586 9l-7.315 7.315-.655-.852A3 3 0 0 1 31 13.648a2.956 2.956 0 0 1 .873-2.106ZM25.207 18.207a4.544 4.544 0 0 0 .629-5.628L31 7.414 32.086 8.5l-1.627 1.627A4.947 4.947 0 0 0 29 13.648a5.006 5.006 0 0 0 .981 2.957L20 26.586 18.414 25ZM6 59a2 2 0 1 1 2 2 2 2 0 0 1-2-2Zm12.931-3h-1.1A5.828 5.828 0 0 1 12 50.171v-1.1A8.008 8.008 0 0 1 18.931 56ZM10 45v2H6v-2Zm-7 6a2 2 0 0 1 2-2h5v1.171A7.829 7.829 0 0 0 17.828 58H19v2a1 1 0 0 1-1 1h-6.556A3.959 3.959 0 0 0 12 59a4 4 0 0 0-8 0 3.959 3.959 0 0 0 .556 2H3Z" fill="#000000" opacity="1" data-original="#000000"></path></g></svg>