<svg xmlns="http://www.w3.org/2000/svg" version="1.1" xmlns:xlink="http://www.w3.org/1999/xlink" width="512" height="350" x="0" y="0" viewBox="0 0 512 512" style="enable-background:new 0 0 512 512" xml:space="preserve" class=""><g><path fill="#0d0d0d" d="M417.3 349c-29.6 0-53.7-24.1-53.7-53.7s24.1-53.7 53.7-53.7 53.7 24.1 53.7 53.7-24.1 53.7-53.7 53.7zm0-97.5c-24.1 0-43.7 19.6-43.7 43.7s19.6 43.7 43.7 43.7 43.7-19.6 43.7-43.7-19.6-43.7-43.7-43.7zM93.1 349c-29.6 0-53.7-24.1-53.7-53.7s24.1-53.7 53.7-53.7 53.7 24.1 53.7 53.7S122.7 349 93.1 349zm0-97.5c-24.1 0-43.7 19.6-43.7 43.7S69 339 93.1 339s43.7-19.6 43.7-43.7-19.6-43.8-43.7-43.8z" opacity="1" data-original="#0d0d0d" class=""></path><path fill="#0d0d0d" d="M93.1 324.2c-15.9 0-28.9-13-28.9-28.9s13-28.9 28.9-28.9 28.9 13 28.9 28.9-13 28.9-28.9 28.9zm0-47.9c-10.4 0-18.9 8.5-18.9 18.9s8.5 18.9 18.9 18.9 18.9-8.5 18.9-18.9-8.5-18.9-18.9-18.9zM417.1 324.2c-15.9 0-28.9-13-28.9-28.9s13-28.9 28.9-28.9 28.9 13 28.9 28.9-13 28.9-28.9 28.9zm0-47.9c-10.4 0-18.9 8.5-18.9 18.9s8.5 18.9 18.9 18.9 18.9-8.5 18.9-18.9-8.5-18.9-18.9-18.9z" opacity="1" data-original="#0d0d0d" class=""></path><path fill="#0d0d0d" d="M495 324h-35.3v-10H490v-18.8c0-.7.1-1.4.4-2l10.4-23.7-19.9-14.9c-22-16.5-49.2-25.6-76.7-25.6H362c-1 0-2-.3-2.8-.9L314.9 198c-24.2-16.4-52.4-25.1-81.6-25.1H128.7L10 209.2v4.8h6c2.8 0 5 2.2 5 5v43c0 2.8-2.2 5-5 5h-6v27.3L25 314h25.6v10H22.5c-1.6 0-3-.7-4-2L1 299c-.7-.9-1-1.9-1-3v-34c0-2.8 2.2-5 5-5h6v-33H5c-2.8 0-5-2.2-5-5v-13.5c0-2.2 1.4-4.1 3.5-4.8l123-37.5c.5-.1 1-.2 1.5-.2h105.3c31.2 0 61.4 9.3 87.2 26.8l43 29.2h40.7c29.6 0 59 9.8 82.7 27.6l23.1 17.3c1.9 1.4 2.5 3.9 1.6 6L500 296.3V319c0 2.8-2.2 5-5 5z" opacity="1" data-original="#0d0d0d" class=""></path><path fill="#0d0d0d" d="M303.2 314h71.6v10h-71.6zM135.5 314h147.7v10H135.5zM37.7 267H16c-2.8 0-5-2.2-5-5v-43c0-2.8 2.2-5 5-5h21.8c2 0 3.8 1.2 4.6 3l10.5 24.5c.6 1.4.5 3.1-.2 4.4l-10.5 18.5c-1 1.6-2.7 2.6-4.5 2.6zM21 257h13.8l7.8-13.8-8.1-19.2H21zM331 227h-75c-.3 0-.5 0-.8-.1l-100.5-15.5 1.5-9.9L256.4 217h59l-4.1-2.9c-24.8-17.7-54-27.1-84.5-27.1h-89.1l-26.2 7.7 24.8 3.8-1.5 9.9-47-7.2c-2.3-.4-4.1-2.3-4.2-4.6-.2-2.3 1.3-4.5 3.6-5.1l48.5-14.2c.5-.1.9-.2 1.4-.2h89.8c32.6 0 63.8 10 90.3 28.9l16.8 12c1.8 1.3 2.5 3.5 1.9 5.6-.8 2-2.7 3.4-4.9 3.4z" opacity="1" data-original="#0d0d0d" class=""></path><path fill="#0d0d0d" d="M195.2 217.7c-.3 0-.5 0-.8-.1l-20.4-3.1c-2.4-.4-4.2-2.5-4.2-4.9V182c0-2.8 2.2-5 5-5h20.4c2.8 0 5 2.2 5 5v30.6c0 1.5-.6 2.8-1.7 3.8-.9.8-2.1 1.3-3.3 1.3zm-15.4-12.5 10.4 1.6V187h-10.4zM356.2 300.2l-162.6-9.7c-1.4-.1-2.7-.8-3.6-1.9l-30.9-39c-1-1.2-1.3-2.8-.9-4.3s1.4-2.7 2.8-3.4l32.3-14.5c.9-.4 1.8-.5 2.8-.4l158.4 24-1.5 9.9-157-23.7-25 11.2 25.5 32.2 160.4 9.6zM476 263h31v10h-31z" opacity="1" data-original="#0d0d0d" class=""></path></g></svg>