<svg xmlns="http://www.w3.org/2000/svg" version="1.1" xmlns:xlink="http://www.w3.org/1999/xlink" width="512" height="350px"  x="0" y="0" viewBox="0 0 60 60" style="enable-background:new 0 0 512 512" xml:space="preserve"><g><path d="m56.308 24.793-9.9-.764-7.329-6.516A5.978 5.978 0 0 0 35.106 16H23a3 3 0 0 0-3 3v4H4a3 3 0 0 0-3 3v7.278A1.993 1.993 0 0 0 0 35v2a2 2 0 0 0 2 2h4.09a5.993 5.993 0 0 0 11.82 0h2.368A1.993 1.993 0 0 0 22 40h22.35a5.99 5.99 0 0 0 11.3 0H57a3 3 0 0 0 3-3v-8.218a4.02 4.02 0 0 0-3.692-3.989ZM4 25h1v1a1 1 0 0 1-1 1H3v-1a1 1 0 0 1 1-1ZM2 35h4.812a5.966 5.966 0 0 0-.722 2H2Zm10 7a4 4 0 1 1 4-4 4 4 0 0 1-4 4Zm0-10a5.962 5.962 0 0 0-3.31 1H3v-4h1a3 3 0 0 0 3-3v-1h13v12h-2.09A6.006 6.006 0 0 0 12 32Zm46-3.218V29h-2a1 1 0 0 1-1-1v-1.3l1.153.089A2.011 2.011 0 0 1 58 28.782Zm-20.244-9.775L43.371 24H33v-6h2.106a3.985 3.985 0 0 1 2.65 1.007ZM26 18h5v6h-4a1 1 0 0 1-1-1Zm18 20H22V19a1 1 0 0 1 1-1h1v5a3 3 0 0 0 3 3h18.961l7.039.544V28a3 3 0 0 0 3 3h2v3h-3.54A5.992 5.992 0 0 0 44 38Zm6 4a4 4 0 1 1 4-4 4 4 0 0 1-4 4Zm7-4h-1a5.976 5.976 0 0 0-.35-2H58v1a1 1 0 0 1-1 1Z" fill="#000000" opacity="1" data-original="#000000"></path></g></svg>