<svg xmlns="http://www.w3.org/2000/svg" version="1.1" xmlns:xlink="http://www.w3.org/1999/xlink" width="512" height="512" x="0" y="0" viewBox="0 0 512 512" style="enable-background:new 0 0 512 512" xml:space="preserve" class=""><g><path d="M115.191 273.428a96.81 96.81 0 0 0-28.134 28.139 2.255 2.255 0 0 1-3.781.002 97.002 97.002 0 0 0-28.15-28.14 2.254 2.254 0 0 1-.003-3.781 97.359 97.359 0 0 0 28.152-28.153 2.254 2.254 0 0 1 3.78.002 97.17 97.17 0 0 0 28.137 28.152 2.252 2.252 0 0 1-.001 3.779zM169.803 218.594a72.63 72.63 0 0 0-21.101 21.104 1.69 1.69 0 0 1-2.835.001 72.768 72.768 0 0 0-21.112-21.105 1.69 1.69 0 0 1-.002-2.836 73.017 73.017 0 0 0 21.114-21.115 1.69 1.69 0 0 1 2.835.001 72.878 72.878 0 0 0 21.103 21.114 1.69 1.69 0 0 1-.002 2.836zM441.6 203.063a72.63 72.63 0 0 0-21.101 21.104 1.69 1.69 0 0 1-2.835.001 72.768 72.768 0 0 0-21.112-21.105 1.69 1.69 0 0 1-.002-2.836 73.017 73.017 0 0 0 21.114-21.115 1.69 1.69 0 0 1 2.835.001 72.878 72.878 0 0 0 21.103 21.114 1.69 1.69 0 0 1-.002 2.836z" style="stroke-width:15;stroke-linecap:round;stroke-linejoin:round;stroke-miterlimit:10;" fill="none" stroke="#000000" stroke-width="15" stroke-linecap="round" stroke-linejoin="round" stroke-miterlimit="10" data-original="#000000" class=""></path><circle cx="147.281" cy="457.906" r="46.594" style="stroke-width:15;stroke-linecap:round;stroke-linejoin:round;stroke-miterlimit:10;" fill="none" stroke="#000000" stroke-width="15" stroke-linecap="round" stroke-linejoin="round" stroke-miterlimit="10" data-original="#000000" class=""></circle><circle cx="147.281" cy="457.906" r="15.531" style="stroke-width:15;stroke-linecap:round;stroke-linejoin:round;stroke-miterlimit:10;" fill="none" stroke="#000000" stroke-width="15" stroke-linecap="round" stroke-linejoin="round" stroke-miterlimit="10" data-original="#000000" class=""></circle><circle cx="380.25" cy="457.906" r="46.594" style="stroke-width:15;stroke-linecap:round;stroke-linejoin:round;stroke-miterlimit:10;" fill="none" stroke="#000000" stroke-width="15" stroke-linecap="round" stroke-linejoin="round" stroke-miterlimit="10" data-original="#000000" class=""></circle><circle cx="380.25" cy="457.906" r="15.531" style="stroke-width:15;stroke-linecap:round;stroke-linejoin:round;stroke-miterlimit:10;" fill="none" stroke="#000000" stroke-width="15" stroke-linecap="round" stroke-linejoin="round" stroke-miterlimit="10" data-original="#000000" class=""></circle><path d="M24.031 380.25h30.062v31.062l-6.744 6.744a30 30 0 0 1-21.213 8.787h-2.105M54.094 411.312h21.594c13.807 0 25-11.193 25-25v-3.562a2.5 2.5 0 0 0-2.5-2.5H54.094M240.646 287.062a33.935 33.935 0 0 0-26.499 12.736l-23.837 29.796c-1.31 1.637-.144 4.062 1.952 4.062h92.3a2.5 2.5 0 0 0 2.5-2.5v-41.594a2.5 2.5 0 0 0-2.5-2.5h-43.916zM439.834 300.011a18.913 18.913 0 0 0-17.966-12.949H320.625a2.5 2.5 0 0 0-2.5 2.5v41.594a2.5 2.5 0 0 0 2.5 2.5H447.58a2.5 2.5 0 0 0 2.372-3.291l-10.118-30.354zM380.25 287.062v46.594M271.531 364.719h15.531M411.312 364.719h15.532M487.969 426.844h-20.062c-5.523 0-10-4.477-10-10V390.25c0-5.523 4.477-10 10-10h20.062M307.199 153.438l33.124-33.124a5 5 0 0 0 0-7.071l-25.876-25.876a5 5 0 0 0-7.071 0l-58.822 58.822a5 5 0 0 1-7.071 0l-36.858-36.858a5 5 0 0 0-7.071 0l-25.876 25.876a5 5 0 0 0 0 7.071l62.733 62.734c5.858 5.858 15.355 5.858 21.213 0l26.008-26.008M72.521 88.404C32.135 132.592 7.5 191.419 7.5 256c0 36.445 7.846 71.057 21.94 102.24" style="stroke-width:15;stroke-linecap:round;stroke-linejoin:round;stroke-miterlimit:10;" fill="none" stroke="#000000" stroke-width="15" stroke-linecap="round" stroke-linejoin="round" stroke-miterlimit="10" data-original="#000000" class=""></path><path d="M488.151 344.834C498.713 317.248 504.5 287.3 504.5 256 504.5 118.757 393.243 7.5 256 7.5c-60.008 0-115.048 21.27-157.992 56.682M179.823 492.605C203.828 500.328 229.427 504.5 256 504.5c30.926 0 60.532-5.649 87.843-15.972" style="stroke-width:15;stroke-linecap:round;stroke-linejoin:round;stroke-miterlimit:10;" fill="none" stroke="#000000" stroke-width="15" stroke-linecap="round" stroke-linejoin="round" stroke-miterlimit="10" data-original="#000000" class=""></path><path d="M427.844 457.906h56.125a5 5 0 0 0 5-5v-91.548c0-8.061-1.3-16.07-3.849-23.717l-15.818-47.453C462.497 269.771 443.39 256 421.868 256H240.647a64.999 64.999 0 0 0-50.756 24.395l-38.803 48.503a15.003 15.003 0 0 1-9.853 5.514L53.69 345.355c-17.515 2.189-30.659 17.078-30.659 34.73v72.821a5 5 0 0 0 5 5h71.656M263.954 457.906h68.702M194.875 457.906h34.079" style="stroke-width:15;stroke-linecap:round;stroke-linejoin:round;stroke-miterlimit:10;" fill="none" stroke="#000000" stroke-width="15" stroke-linecap="round" stroke-linejoin="round" stroke-miterlimit="10" data-original="#000000" class=""></path></g></svg>