<svg xmlns="http://www.w3.org/2000/svg" version="1.1" xmlns:xlink="http://www.w3.org/1999/xlink" width="512" height="350px"  x="0" y="0" viewBox="0 0 512 512" style="enable-background:new 0 0 512 512" xml:space="preserve" class=""><g><path d="M496.367 346.997h-1.694v-83.135c0-8.072-4.46-15.398-11.637-19.116l-33.423-17.284-32.158-81.8h64.232c7.163 0 12.987-5.823 12.987-12.982V99.52c0-7.163-5.823-12.987-12.987-12.987H33.142c-8.718 0-15.815 7.096-15.815 15.815v244.649h-1.694c-5.254 0-9.527 4.278-9.527 9.532v23.203c0 5.254 4.273 9.532 9.527 9.532h52.639c8.435 21.177 29.101 36.204 53.249 36.204s44.814-15.027 53.249-36.204h161.32c8.435 21.177 29.101 36.204 53.249 36.204s44.814-15.027 53.249-36.204h53.778c5.254 0 9.527-4.278 9.527-9.532v-23.203c.001-5.254-4.272-9.532-9.526-9.532zm-57.564-120.085h-96.997v-81.25h65.12zM27.127 102.348a6.023 6.023 0 0 1 6.015-6.015h448.544a3.192 3.192 0 0 1 3.187 3.187v33.16a3.188 3.188 0 0 1-3.187 3.182H27.127v-33.514zm0 155.131h23.107v15.02H27.127zm0 24.82h23.107v37.912H27.127zm-11.221 97.432-.273-22.935h49.689a57.392 57.392 0 0 0 .039 22.907zm105.615 35.936c-26.212 0-47.535-21.322-47.535-47.535 0-26.212 21.322-47.539 47.535-47.539s47.535 21.327 47.535 47.539c0 26.213-21.322 47.535-47.535 47.535zm56.172-36.025a57.371 57.371 0 0 0 .026-22.845H333.14a57.265 57.265 0 0 0 .013 22.758zm39.649-32.645v-174.96h73.895v174.96zm171.998 68.67c-26.212 0-47.535-21.322-47.535-47.535 0-26.212 21.322-47.539 47.535-47.539 26.212 0 47.535 21.327 47.535 47.539-.001 26.213-21.323 47.535-47.535 47.535zm53.247-68.67c-8.436-21.176-29.101-36.204-53.248-36.204s-44.812 15.027-53.248 36.204h-35.055v-179.86c0-2.708-2.192-4.9-4.9-4.9h-83.695a4.898 4.898 0 0 0-4.9 4.9v179.86h-32.773c-8.436-21.176-29.101-36.204-53.248-36.204s-44.812 15.027-53.248 36.204H27.127V330.01h28.007c2.708 0 4.9-2.192 4.9-4.9v-72.532c0-2.708-2.192-4.9-4.9-4.9H27.127V145.662h304.879v86.15c0 2.708 2.192 4.9 4.9 4.9h109.262l32.366 16.738a11.69 11.69 0 0 1 6.34 10.412v12.408H460.48a4.898 4.898 0 0 0-4.9 4.9v43.941c0 2.708 2.192 4.9 4.9 4.9h24.394v16.987h-42.287zm42.286-60.928v34.141h-19.494v-34.141zm-39.338 93.423a57.401 57.401 0 0 0 1.139-11.36c0-3.881-.397-7.669-1.136-11.336h50.56l.268 22.667z" fill="#000000" opacity="1" data-original="#000000" class=""></path><path d="M389.34 344.461c-13.049 0-23.667 10.618-23.667 23.672 0 13.049 10.618 23.667 23.667 23.667s23.667-10.618 23.667-23.667c0-13.054-10.618-23.672-23.667-23.672zm0 37.539c-7.647 0-13.867-6.221-13.867-13.867 0-7.651 6.221-13.872 13.867-13.872s13.867 6.221 13.867 13.872c0 7.646-6.221 13.867-13.867 13.867zM121.521 344.461c-13.049 0-23.667 10.618-23.667 23.672 0 13.049 10.618 23.667 23.667 23.667s23.667-10.618 23.667-23.667c0-13.054-10.618-23.672-23.667-23.672zm0 37.539c-7.646 0-13.867-6.221-13.867-13.867 0-7.651 6.221-13.872 13.867-13.872s13.867 6.221 13.867 13.872c0 7.646-6.22 13.867-13.867 13.867zM166.793 162.237H55.134a4.898 4.898 0 0 0-4.9 4.9v64.675c0 2.708 2.192 4.9 4.9 4.9h111.659c2.708 0 4.9-2.192 4.9-4.9v-64.675a4.898 4.898 0 0 0-4.9-4.9zm-4.9 64.675H60.034v-54.875h101.859z" fill="#000000" opacity="1" data-original="#000000" class=""></path></g></svg>