<svg xmlns="http://www.w3.org/2000/svg" version="1.1" xmlns:xlink="http://www.w3.org/1999/xlink" width="512" height="350px"  x="0" y="0" viewBox="0 0 64 64" style="enable-background:new 0 0 512 512" xml:space="preserve" class=""><g><path d="M51.6 38.5a2.1 2.1 0 1 1-4.2 0 2.1 2.1 0 0 1 4.2 0zm-39.1-2.1a2.1 2.1 0 1 0 0 4.2 2.1 2.1 0 0 0 0-4.2zm32.08-4.25c-.07.27-.31.45-.58.45h-.03c-.21 0-19.2-.87-22.51-.99l2.96 2.96c.55.55 1.29.92 2.06 1.02l13.59 1.81c.33.04.56.35.52.67-.04.3-.3.52-.59.52h-.08l-13.59-1.81a4.803 4.803 0 0 1-2.75-1.36l-5-5a.585.585 0 0 1-.14-.24c0-.03-.01-.05-.02-.08a.67.67 0 0 1 0-.2v-.05c0-.01.01-.02.02-.03.02-.08.06-.15.12-.22 0 0 0-.02.02-.02.07-.07.15-.11.24-.14 0 0 .01-.01.02-.01.29-.08 7.15-2.02 13.17-2.02 4.42 0 7.27 1.48 10.58 3.2.55.28 1.11.57 1.69.87.25.13.38.41.31.69zm-3.3-.87C38.42 29.81 35.8 28.6 32 28.6c-4.36 0-9.33 1.09-11.59 1.65.2.09.4.15.59.15.8 0 14.32.61 20.28.88zM62.6 38v3c0 .27-.18.5-.44.58-2.04.58-7.87 1-8.12 1.02h-1.52c-.85.63-1.89 1-3.02 1s-2.17-.37-3.02-1H20c-1.19 0-2.66-.06-4.26-.17-.88.73-2.01 1.16-3.23 1.16-1.62 0-3.06-.76-3.99-1.94-2.4-.36-4.01-.74-4.78-1.12-1.7-.85-1.78-2.47-1.39-3.52-.82-1.78-.73-3.2-.34-4.26v-.04c.24-.65.59-1.15.91-1.51-.36-.34-.51-.82-.51-1.2 0-.33.27-.6.6-.6h6c.99 0 2.91-.5 5.35-1.13 4.69-1.21 11.11-2.87 17.65-2.87 4.9 0 13.23 4.49 14.21 5.03 1.01.21 9.13 1.88 13.31 3.69.27.12.52.23.75.35 2.3 1.15 2.33 3.44 2.33 3.54zm-7.36-3.33c.8.71 1.71.73 1.76.73 1.85 0 3.12.58 3.98 1.27-.58-.97-1.66-1.34-2.68-1.75-1.11-.12-2.24-.2-3.06-.25zM3.68 32.15a7.12 7.12 0 0 0 1.66-.55H4.21c-.12.1-.32.29-.53.55zM12.5 42.4c.97 0 1.85-.35 2.53-.93 0-.01 0-.02.02-.02.83-.77 1.35-1.82 1.35-2.95 0-1.72-1.12-3.16-2.67-3.68-.39-.13-.8-.22-1.23-.22a3.898 3.898 0 0 0-3.9 3.9c.01.82.26 1.61.75 2.28.7.98 1.85 1.62 3.15 1.62zm37 0c.87 0 1.67-.29 2.32-.77.01 0 .01-.01.01-.01.96-.76 1.57-1.89 1.57-3.12 0-1.72-1.12-3.16-2.67-3.68-.39-.13-.8-.22-1.23-.22a3.898 3.898 0 0 0-3.9 3.9c0 1.23.61 2.36 1.57 3.12a3.892 3.892 0 0 0 2.33.78zm11.9-1.87v-1.42c-.18-.43-1.2-2.51-4.4-2.51-.1 0-2.38-.03-3.54-2.33-.1-.19-.08-.42.03-.59.06-.1.15-.17.26-.21-3.87-1.07-7.81-1.86-7.87-1.87s-.12-.03-.17-.06c-.09-.05-8.92-4.92-13.71-4.92-6.38 0-12.72 1.64-17.34 2.83-2.62.68-4.52 1.17-5.66 1.17H7.42s.07.05.09.09c.11.18.12.4.03.58s-.99 1.74-4.5 2.2c-.21.82-.17 1.91.51 3.26.08.17.08.37 0 .54-.12.24-.64 1.51.73 2.19.53.27 1.77.57 3.47.86-.37-.96-.45-2.04-.18-3.02.54-2.23 2.54-3.9 4.94-3.9s4.4 1.67 4.94 3.9c.37 1.35.06 2.83-.68 4 1.2.07 2.31.1 3.23.1h25.31c-.41-.61-.7-1.31-.83-2.03-.13-.68-.09-1.41.08-2.07.54-2.23 2.54-3.9 4.94-3.9s4.4 1.67 4.94 3.9c.17.66.21 1.39.08 2.07-.13.72-.42 1.42-.83 2.03H54s5.15-.38 7.4-.87z" fill="#000000" opacity="1" data-original="#000000" class=""></path></g></svg>