<svg xmlns="http://www.w3.org/2000/svg" version="1.1" xmlns:xlink="http://www.w3.org/1999/xlink" width="512" height="350px"  x="0" y="0" viewBox="0 0 64 64" style="enable-background:new 0 0 512 512" xml:space="preserve"><g><g data-name="Layer 6"><path d="m59.706 30.519-.284-.04a6.956 6.956 0 0 1-4.61-2.73L46 16a5.025 5.025 0 0 0-4-2H5a5.006 5.006 0 0 0-5 5v22a5.006 5.006 0 0 0 5 5h1.685a6.985 6.985 0 0 0 12.63 0h25.37a6.985 6.985 0 0 0 12.63 0H59a5.006 5.006 0 0 0 5-5v-5.531a5.026 5.026 0 0 0-4.294-4.95ZM62 38h-1a3.006 3.006 0 0 1-2.829-2H62ZM2 36a1 1 0 0 1 1 1v2a1 1 0 0 1-1 1Zm11 12a5 5 0 1 1 5-5 5.006 5.006 0 0 1-5 5Zm38 0a5 5 0 1 1 5-5 5.006 5.006 0 0 1-5 5Zm8-4h-1.08a7 7 0 1 0-13.84 0H19.92a7 7 0 1 0-13.84 0H5a2.993 2.993 0 0 1-2.821-2.018A3 3 0 0 0 5 39v-2a3 3 0 0 0-3-3V19a3 3 0 0 1 3-3h37a3.017 3.017 0 0 1 2.4 1.2l8.812 11.749a8.943 8.943 0 0 0 5.928 3.51l.284.04A3.006 3.006 0 0 1 61.605 34H57a1 1 0 0 0-1 1 5.006 5.006 0 0 0 5 5h1v1a3 3 0 0 1-3 3Z" fill="#000000" opacity="1" data-original="#000000"></path><path d="M46.55 22.4a1 1 0 0 0-1.6 1.2l2.85 3.8A1 1 0 0 1 47 29H37a1 1 0 0 1-1-1v-8a1 1 0 0 1 1-1h4a1 1 0 0 1 .8.4l.9 1.2a1 1 0 1 0 1.6-1.2l-.9-1.2A3.014 3.014 0 0 0 41 17h-4a3 3 0 0 0-3 3v8a3 3 0 0 0 3 3h10a3 3 0 0 0 2.4-4.8ZM29 17H6a3 3 0 0 0-3 3v8a3 3 0 0 0 3 3h23a3 3 0 0 0 3-3v-8a3 3 0 0 0-3-3ZM5 28v-8a1 1 0 0 1 1-1h6v10H6a1 1 0 0 1-1-1Zm9-9h7v10h-7Zm16 9a1 1 0 0 1-1 1h-6V19h6a1 1 0 0 1 1 1ZM51 40a3 3 0 1 0 3 3 3 3 0 0 0-3-3Zm0 4a1 1 0 1 1 1-1 1 1 0 0 1-1 1ZM13 40a3 3 0 1 0 3 3 3 3 0 0 0-3-3Zm0 4a1 1 0 1 1 1-1 1 1 0 0 1-1 1ZM39 32h-2a1 1 0 0 0 0 2h2a1 1 0 0 0 0-2ZM29 32a1 1 0 0 0-1 1v1a1 1 0 0 0 2 0v-1a1 1 0 0 0-1-1Z" fill="#000000" opacity="1" data-original="#000000"></path></g></g></svg>