<svg xmlns="http://www.w3.org/2000/svg" version="1.1" xmlns:xlink="http://www.w3.org/1999/xlink" width="512" height="512" x="0" y="0" viewBox="0 0 313.094 219.207" style="enable-background:new 0 0 512 512" xml:space="preserve" class="hovered-paths"><g><path d="m93.616 192.044.38 13.184a16.388 16.388 0 0 1-2.397 9.021h8.61a2.752 2.752 0 0 0 2.752-2.752V192.044zM291.72 192.044h-15.76V211.497a2.752 2.752 0 0 0 2.751 2.752h25.098a2.752 2.752 0 0 0 2.752-2.752v-24.303a25.025 25.025 0 0 1-14.84 4.85zM150.625 88.486h-.309l.014-.645a3.484 3.484 0 0 1-.2-1.147c0-.071.01-.14.015-.21h-1.734l2.024-3.74.046-2.183-3.207 5.922h-2.717l6.032-11.139.045-2.183-7.214 13.322h-2.715l6.945-12.828c-.164.038-.324.086-.492.117l-.786.145-6.804 12.566h-2.717l6.503-12.01-1.263.233-6.377 11.777h-2.716l6.075-11.22-1.263.232-5.95 10.988h-2.715l5.649-10.432-1.263.233-5.523 10.2h-2.716l5.221-9.644-1.263.233-5.095 9.41h-2.717l4.794-8.854-1.263.233-4.667 8.621h-2.716l4.367-8.065-1.264.233-4.24 7.832h-2.717l3.94-7.276-1.263.233-3.814 7.043h-2.716l3.512-6.486-1.263.232-3.386 6.254h-2.716l3.085-5.698-1.263.233-2.959 5.465h-2.716l2.657-4.909-1.262.233-2.532 4.676h-2.717l2.444-4.513c-.363-.019-.723-.048-1.083-.1l-2.498 4.613h-.693a3.55 3.55 0 0 1-1.77-.466l2.563-4.735c-.315-.115-.618-.257-.922-.397l-2.442 4.51c-1.028-1.067-1.38-2.743-.571-4.218l.766-1.397-2.856-1.437-5.278 9.6c-.258.47-.074.877.017 1.03s.359.511.894.511h64.552a4.323 4.323 0 0 1-.817-.998zM106.7 56.825l16.048-29.261a10.983 10.983 0 0 1 5.013-4.674l-18.077 33.385 1.263-.232 18.25-33.707c.954-.29 1.952-.458 2.976-.478l-18.208 33.628 1.263-.232 18.094-33.418 2.742-.05-17.819 32.911 1.263-.232 17.704-32.699 2.743-.049-17.429 32.191 1.263-.233 17.314-31.978 2.743-.05-17.04 31.472 1.264-.233 16.924-31.259 2.742-.049-16.65 30.752 1.264-.233 16.534-30.539 2.743-.049-16.26 30.032 1.263-.233 15.032-27.764.068-3.289H123.9c-.435 0-.836.236-1.045.617l-20.028 36.427.35.176zM174.726 25.074h29.469v7.419h-29.469zM151.554 28.761l-11.906 21.99 1.263-.232 10.598-19.574zM151.401 36.162l-7.503 13.857c.365-.033.731-.05 1.095-.05.023 0 .045.003.067.003l6.296-11.627zM151.202 45.745l.046-2.183-3.632 6.708c.335.075.666.165.991.268zM151.094 50.961l-.283.523c.09.05.18.099.27.151zM154.052 19.216l-.707 34.15a11.973 11.973 0 0 1 3.438 6.43c.785 4.253-.8 8.397-3.802 11.097l-.25 12.12c1.227-.636 2.82-1.004 4.627-1.004 1.809 0 3.401.369 4.63 1.005l-1.324-63.798c-.118-.838-1.544-1.502-3.305-1.502s-3.188.664-3.307 1.502zM162.288 86.694c0-1.317-2.207-2.386-4.93-2.386-2.721 0-4.928 1.069-4.928 2.386 0 1.318 2.207 2.387 4.929 2.387 2.722 0 4.929-1.069 4.929-2.387zm-4.93-1.095c1.566 0 2.835.597 2.835 1.333s-1.269 1.334-2.834 1.334c-1.566 0-2.835-.597-2.835-1.334s1.27-1.333 2.835-1.333zM67.398 39.47l4.134 2.08c5.593-3.518 9.595-9.453 10.392-16.53C83.314 12.67 74.433 1.534 62.084.143c-12.348-1.39-23.487 7.492-24.877 19.841a22.393 22.393 0 0 0 2.408 12.927l23.63 5.344c1.453.15 2.848.558 4.153 1.215z" fill="#000000" opacity="1" data-original="#000000" class="hovered-path"></path><path d="M102.046 56.906a7.977 7.977 0 0 0 1.272-4.65l17.785-32.349a3.193 3.193 0 0 1 2.797-1.652h27.872l.001-.064 1.017-1.24c.991-.962 2.615-1.537 4.568-1.537 1.93 0 3.537.56 4.532 1.502l1.04 1.21.066 3.18 26.463-.472 57.268 1.022a10.995 10.995 0 0 1 9.444 5.706l29.402 53.615c1.31 2.388-.418 5.306-3.142 5.306H164.572c.004.07.015.14.015.211 0 .401-.074.783-.2 1.147l.013.645h-.308c-1.02 1.747-3.54 2.894-6.734 2.894-1.008 0-1.948-.117-2.797-.328v.432H86.89a3.013 3.013 0 0 1-2.617-1.492 3.01 3.01 0 0 1-.047-3.011l5.243-9.537-17.296-8.703-2.565 9.706h14.56L73.792 97.37a49.674 49.674 0 0 0-6.08 22.57l20.528 22.695a16.519 16.519 0 0 1 4.256 10.593l.958 33.201h198.268a19.527 19.527 0 0 0 19.527-19.527v-45.636a49.695 49.695 0 0 0-6.122-23.896L294.75 78.447h14.603c4.987 0 4.987-18.135 0-18.135h-24.548l-20.427-37.249A20.355 20.355 0 0 0 246.894 12.5l-57.435-1.026-57.434 1.026a20.354 20.354 0 0 0-17.484 10.564L101.29 47.228a8.017 8.017 0 0 0-7.637-2.492l-11.066 2.377zm-17.922 53.469c.364-6.308 5.775-11.125 12.081-10.76 1.496.087 2.941.476 4.22 1.075l26.74 12.613a5.71 5.71 0 0 1-2.765 10.863l-29.516-1.71c-6.309-.365-11.125-5.774-10.76-12.081zm140.733 61.53a1.982 1.982 0 0 1-1.982 1.981h-66.83a1.982 1.982 0 0 1-1.982-1.982v-12.859c0-1.094.887-1.981 1.981-1.981h66.831c1.095 0 1.982.887 1.982 1.981zm68.865-65.749c2.694 5.714.247 12.532-5.467 15.227a11.6 11.6 0 0 1-4.22 1.074l-29.516 1.71a5.71 5.71 0 0 1-6.03-5.37 5.714 5.714 0 0 1 3.265-5.495l26.74-12.612c5.715-2.696 12.532-.249 15.228 5.466z" fill="#000000" opacity="1" data-original="#000000" class="hovered-path"></path><path d="M7.258 218.05a12.45 12.45 0 0 0 5.237 1.157c4.722 0 9.243-2.69 11.355-7.258l23.5-50.834a12.498 12.498 0 0 0 .114-10.235l-8.47-19.456 24.647 27.247 1.367 47.393c.197 6.779 5.752 12.14 12.489 12.14.122 0 .245-.002.367-.005 6.9-.2 12.334-5.955 12.134-12.855l-1.5-52.001a12.504 12.504 0 0 0-3.224-8.025l-29-32.06L69.568 62.95 97.79 77.153a7.996 7.996 0 0 0 5.045.722l43.597-8.037a8 8 0 0 0 6.417-9.318 7.996 7.996 0 0 0-9.317-6.417l-40.952 7.549-36.982-18.61a7.97 7.97 0 0 0-2.98-.828L24.67 33.632a7.713 7.713 0 0 0-4.685 5.227L3.31 101.965c-1.36 3.083-1.49 6.699-.04 10.032l19.032 43.72-21.146 45.742c-2.897 6.266-.165 13.694 6.101 16.592z" fill="#000000" opacity="1" data-original="#000000" class="hovered-path"></path></g></svg>