<svg xmlns="http://www.w3.org/2000/svg" version="1.1" xmlns:xlink="http://www.w3.org/1999/xlink" width="512"  x="0" y="0" viewBox="0 0 351.388 158.203" style="enable-background:new 0 0 512 512" xml:space="preserve" class="hovered-paths"><g><path d="M3.504 132.505H17.65c-.005.251-.019.5-.019.752v3h6v-3c0-16.103 13.101-29.204 29.204-29.204s29.204 13.101 29.204 29.204v3h6v-3c0-.252-.014-.501-.019-.752h175.188c-.005.251-.019.5-.019.752v3h6v-3c0-16.103 13.101-29.204 29.204-29.204s29.205 13.101 29.205 29.204v3h6v-3c0-.252-.014-.501-.019-.752h14.305c4.673 0 4.673-16.991 0-16.991h-1.796c-.556-14.053-2.695-36.522-10.67-37.391v-1.961c.016 0 .03.007.045.007 1.395 0 1.395-8.211 0-8.211s-2.526 1.838-2.526 4.105c0 1.4.433 2.634 1.092 3.374v2.65c-10.56-.102-49.709-1.801-69.703-2.693a43.876 43.876 0 0 1-21.918-7.02l-22.805-14.781a43.869 43.869 0 0 0-23.861-7.057h-77.035c-3.599 0-7.148.828-10.376 2.42-10.74 5.297-45.078 18.729-57.339 23.488a41.646 41.646 0 0 1-9.043 2.383l-29.591 5.457a8.536 8.536 0 0 0-7.298 8.253l-.613 26.976h-.943c-4.672.001-4.672 16.992 0 16.992zm90.832-45.473c0-1.181.966-2.147 2.147-2.147h17.937c1.181 0 2.147.966 2.147 2.147s-.966 2.147-2.147 2.147H96.483a2.153 2.153 0 0 1-2.147-2.147zm75.41 0c0-1.181.966-2.147 2.147-2.147h17.937c1.181 0 2.147.966 2.147 2.147s-.966 2.147-2.147 2.147h-17.937a2.154 2.154 0 0 1-2.147-2.147zm170.155 24.185-5.344-11.427h4.232c.472 3.489.853 7.357 1.112 11.427zm-5.504-27.127c1.501 1.48 2.875 6.152 3.92 12.541h-5.236l-5.939-12.699c3.088.092 5.578.148 7.255.158zM195.742 52.537c7.31 0 14.464 2.116 20.598 6.091l22.805 14.781a50.14 50.14 0 0 0 3.505 2.074 22.677 22.677 0 0 1-11.843 3.338h-66.574l-4.092-26.284zm-84.708 1.777a17.308 17.308 0 0 1 7.674-1.777h35.287l1.925 26.284H89.221l1.148-15.558c8.678-3.556 16.428-6.855 20.665-8.949zM71.56 70.826c4.512-1.787 9.262-3.685 13.891-5.56L83.31 78.821h-2.2a9.702 9.702 0 0 1-9.55-7.995z" fill="#000000" opacity="1" data-original="#000000" class="hovered-path"></path><path d="M77.672 130.947c-1.167-12.694-11.837-22.636-24.835-22.636-13 0-23.672 9.942-24.838 22.636-.071.76-.112 1.53-.112 2.31 0 13.777 11.169 24.946 24.949 24.946 13.777 0 24.944-11.17 24.944-24.946a24.82 24.82 0 0 0-.108-2.31zm-24.835 18.506c-8.932 0-16.198-7.266-16.198-16.196 0-.473.024-.966.074-1.507.769-8.376 7.7-14.689 16.124-14.689 8.421 0 15.351 6.314 16.121 14.687.048.528.072 1.024.072 1.509.001 8.93-7.263 16.196-16.193 16.196z" fill="#000000" opacity="1" data-original="#000000" class="hovered-path"></path><path d="M52.837 125.812a7.399 7.399 0 0 0-7.411 6.75 7.424 7.424 0 0 0-.037.696c0 4.105 3.341 7.445 7.448 7.445 4.104 0 7.442-3.34 7.442-7.445 0-.216-.012-.452-.035-.708-.352-3.842-3.537-6.738-7.407-6.738zM323.23 130.947c-1.167-12.694-11.837-22.636-24.835-22.636-13 0-23.672 9.942-24.838 22.636-.071.76-.112 1.53-.112 2.31 0 13.777 11.169 24.946 24.949 24.946 13.777 0 24.944-11.17 24.944-24.946a24.82 24.82 0 0 0-.108-2.31zm-24.835 18.506c-8.932 0-16.198-7.266-16.198-16.196 0-.473.024-.966.074-1.507.769-8.376 7.701-14.689 16.124-14.689 8.421 0 15.351 6.314 16.121 14.687.048.528.072 1.024.072 1.509.001 8.93-7.263 16.196-16.193 16.196z" fill="#000000" opacity="1" data-original="#000000" class="hovered-path"></path><path d="M298.395 125.812a7.399 7.399 0 0 0-7.411 6.75 7.424 7.424 0 0 0-.037.696c0 4.105 3.341 7.445 7.448 7.445 4.104 0 7.442-3.34 7.442-7.445 0-.216-.012-.452-.035-.708-.352-3.842-3.537-6.738-7.407-6.738zM257.894 10.005c-7.24-.602-9.403-2.765-10.006-10.005h-.326c-.603 7.24-2.766 9.403-10.006 10.005v.327c7.24.602 9.403 2.765 10.006 10.005h.326c.603-7.24 2.766-9.403 10.006-10.005zM260.085 62.588h.28c.518-6.219 2.375-8.077 8.594-8.594v-.281c-6.219-.517-8.077-2.375-8.594-8.594h-.28c-.518 6.219-2.375 8.077-8.594 8.594v.281c6.219.517 8.077 2.375 8.594 8.594zM271.646 39.116c.693-8.315 3.176-10.799 11.491-11.491v-.376c-8.315-.691-10.799-3.176-11.491-11.491h-.375c-.692 8.315-3.176 10.799-11.491 11.491v.376c8.315.692 10.799 3.176 11.491 11.491z" fill="#000000" opacity="1" data-original="#000000" class="hovered-path"></path></g></svg>